<?xml version="1.0" encoding="UTF-8"?>
<svg width="200" height="200" viewBox="0 0 200 200" xmlns="http://www.w3.org/2000/svg">
  <!-- 作者: firstfu -->
  <!-- 創建時間: 2024-03-27 20:07:54 -->
  <!-- 描述: 血壓管家應用程式Logo -->

  <!-- 背景圓形 -->
  <circle cx="100" cy="100" r="90" fill="#FFFFFF" stroke="#1976D2" stroke-width="6"/>

  <!-- 心臟圖標 -->
  <path d="M100 150C98.3333 150 96.6667 149.333 95.3333 148C75.3333 130 62 114.667 55.3333 102C48.6667 89.3333 46.6667 78 50.6667 68C53.3333 60.6667 58 55.3333 64.6667 52C71.3333 48.6667 78 48 84.6667 49.3333C91.3333 50.6667 97.3333 54.6667 100 62C102.667 54.6667 108.667 50.6667 115.333 49.3333C122 48 128.667 48.6667 135.333 52C142 55.3333 146.667 60.6667 149.333 68C153.333 78 151.333 89.3333 144.667 102C138 114.667 124.667 130 104.667 148C103.333 149.333 101.667 150 100 150Z" fill="#1976D2"/>

  <!-- 血壓計袖帶 -->
  <path d="M52 94C52 94 66 80 100 80C134 80 148 94 148 94" fill="none" stroke="#1976D2" stroke-width="8" stroke-linecap="round"/>

  <!-- 血壓曲線 -->
  <path d="M40 120C45 120 48 115 50 110C52 105 55 100 60 100C65 100 68 110 70 115C72 120 75 125 80 125C85 125 88 115 90 110C92 105 95 100 100 100C105 100 108 110 110 115C112 120 115 125 120 125C125 125 128 115 130 110C132 105 135 100 140 100C145 100 148 110 150 115C152 120 155 120 160 120" fill="none" stroke="#90CAF9" stroke-width="4" stroke-linecap="round"/>
</svg>
