<?xml version="1.0" encoding="UTF-8"?>
<svg width="200" height="200" viewBox="0 0 200 200" xmlns="http://www.w3.org/2000/svg">
  <!-- 作者: firstfu -->
  <!-- 創建時間: 2024-03-27 20:07:54 -->
  <!-- 描述: 血壓管家應用程式Logo -->

  <!-- 定義漸變 -->
  <defs>
    <!-- Apple 風格的藍色漸變 -->
    <linearGradient id="appleBlueGradient" x1="0%" y1="0%" x2="100%" y2="100%">
      <stop offset="0%" stop-color="#007AFF" />
      <stop offset="100%" stop-color="#0055D6" />
    </linearGradient>

    <!-- 輔助色漸變 -->
    <linearGradient id="appleLightGradient" x1="0%" y1="0%" x2="100%" y2="100%">
      <stop offset="0%" stop-color="#60A5FA" />
      <stop offset="100%" stop-color="#3B82F6" />
    </linearGradient>
  </defs>

  <!-- 血壓計外圓 -->
  <circle cx="100" cy="100" r="80"
          fill="white"
          stroke="url(#appleBlueGradient)"
          stroke-width="8"/>

  <!-- 血壓袖帶 -->
  <path d="M45 100C45 100 65 80 100 80C135 80 155 100 155 100"
        fill="none"
        stroke="url(#appleBlueGradient)"
        stroke-width="10"
        stroke-linecap="round"/>

  <!-- 血壓曲線 -->
  <path d="M60 120C65 120 67 115 70 110C73 105 75 95 80 95C85 95 87 110 90 115C93 120 95 120 100 120C105 120 107 100 110 95C113 90 115 100 120 100C125 100 127 105 130 110C133 115 135 120 140 120"
        fill="none"
        stroke="url(#appleLightGradient)"
        stroke-width="5"
        stroke-linecap="round"
        stroke-linejoin="round"/>

  <!-- 數字指示 -->
  <text x="92" y="150"
        font-family="SF Pro Display, -apple-system, BlinkMacSystemFont, sans-serif"
        font-size="18"
        font-weight="600"
        fill="url(#appleBlueGradient)">120/80</text>
</svg>
